<?xml version="1.0" encoding="utf-8"?>
<!-- Generator: Adobe Illustrator 22.1.0, SVG Export Plug-In . SVG Version: 6.00 Build 0)  -->
<svg version="1.1" width="500px" id="Layer_1" xmlns="http://www.w3.org/2000/svg" xmlns:xlink="http://www.w3.org/1999/xlink" x="px" y="0px"
	 viewBox="80 85 324 188" style="enable-background:new 0 0 1024 768;" xml:space="preserve">
<style type="text/css">
	.st0{fill:none;stroke:#000000;stroke-width:0.64;stroke-miterlimit:10;}
	.st1{fill:none;stroke:#000000;stroke-width:0.79;stroke-miterlimit:10;}
</style>
<title>notes-inversion</title>
<path d="M309,682.4c-2.1,0-7.1,0-8.9,0.1v-2.2h5.6v-30h-5.6v-2.2c1.8,0.1,6.8,0.1,8.9,0.1c2.1,0,7.1,0,8.9-0.1v2.2h-5.6v30h5.6v2.2
	C316.1,682.4,311.1,682.4,309,682.4z"/>
<path d="M345.1,682.5h-2.5c-5,0-5-2.2-5-4c-1.4,2.8-4.2,4.5-7.3,4.3c-3.5,0-9.3-1-9.3-5.5c0-5.5,8-7.8,15.8-7.8v-2c0-4.1-2-6-5.5-6
	c-1.3,0-2.6,0.1-3.8,0.5c0.8,0.5,1.2,1.4,1.2,2.4c0.3,1.6-0.8,3.2-2.4,3.5c-1.6,0.3-3.2-0.8-3.5-2.4c-0.1-0.4-0.1-0.7,0-1.1
	c0-4.2,5.9-4.5,8.7-4.5c7,0,10.7,3.1,10.7,7.7v10.8c0,1.2,0,2,3.1,2c0.7,0,1.2,0,1.2,1S346.2,682.5,345.1,682.5z M336.8,670.8
	c-4.9,0.3-10.3,1.8-10.3,6.3c0,2.3,2,4,4.5,4c1.6,0,5.8-0.9,5.8-5.6V670.8z"/>
<line class="st0" x1="57.6" y1="118.5" x2="966.4" y2="118.5"/>
<line class="st0" x1="57.6" y1="142.4" x2="966.4" y2="142.4"/>
<line class="st0" x1="57.6" y1="166.3" x2="966.4" y2="166.3"/>
<line class="st0" x1="57.6" y1="190.2" x2="966.4" y2="190.2"/>
<line class="st0" x1="57.6" y1="214.1" x2="966.4" y2="214.1"/>
<path d="M139.3,150.5l2.4,13.9c0.3,1.7,0.3,1.7,2.8,1.7c14.1,0,23,10.8,23,23c0,10.8-6.4,18.9-16.1,22.8c-1.3,0.6-1.4,0.5-1.2,1.6
	c1.1,5.9,2.8,15,2.8,20.5c0,16.3-12.4,19.1-18.8,19.1c-14.4,0-18.2-9.4-18.2-15.6c0-5.9,3.8-11,10.2-11c5.8,0,9.2,4.5,9.2,9.8
	c0,5.5-3.4,8.1-6.4,9c-2.2,0.7-3.1,1-3.1,1.6c0,1.2,2.5,2.8,7.6,2.8c5.6,0,15.2-1.7,15.2-15.9c0-4.5-1.4-12.8-2.6-19.2
	c-0.2-1.1-0.4-1-1.4-0.9c-2.2,0.4-4.4,0.6-6.6,0.6c-23.4,0-34.8-15.8-34.8-32.4c0-10.2,4.1-19.1,10.7-27.3c5-6.1,11.6-11.9,17.7-17
	c1.1-1,1-1.1,0.9-2.3c-0.8-5.2-1.3-10.4-1.3-15.7c0-10,2.3-21.9,9.4-29.7c1.9-2.1,4.9-4.6,6.2-4.6c1.1,0,3.5,2.7,5,4.8
	c3.9,5.7,6.2,14,6.2,22.3c0,10.8-4.8,22.2-12.8,31c-1.8,2-3.8,4-5.4,5.4C139.3,149.3,139.1,149.4,139.3,150.5z M137.8,165.2l-2-12.2
	c-0.2-1-0.4-1.1-1.3-0.4c-5.3,4.1-10.2,8.6-14.6,13.6c-7.9,9-8.9,16.5-8.9,22.2c0,13.3,10.8,22.6,27.5,22.6c1.8,0,3.6-0.2,5.4-0.5
	c1.4-0.3,1.5-0.3,1.3-1.3l-4.8-28.5c-0.2-1.1-0.4-1.1-1.9-0.8c-5.8,1.6-9.6,5.7-9.6,11.2c0.1,4.5,2.8,8.5,6.9,10.2
	c0.7,0.3,1.4,0.6,1.4,1.2c0,0.6-0.4,1-1,1c-0.1,0-0.1,0-0.1,0c-0.9-0.1-1.8-0.3-2.6-0.6c-6.5-2.2-11-8.3-11-16.9
	c0-8.1,5.4-15.7,13.9-18.6C138.1,166.9,138.1,167,137.8,165.2L137.8,165.2z M144.4,180.4l4.7,27.2c0.2,1.1,0.4,1.1,1.5,0.6
	c5.4-2.7,9-7.5,9-13.6c0.1-8.1-6.1-14.9-14.1-15.6C144.3,178.9,144.3,179.2,144.4,180.4L144.4,180.4z M148.3,100.1
	c-5.8,0-12.7,9.2-12.7,24.1c0,2.9,0.2,5.9,0.6,8.8c0.2,1.2,0.6,1.3,1.2,0.8c2.2-1.9,4.5-4.1,6-5.6c7.5-7.5,10.6-13.6,10.6-20.2
	C154,102.6,151.4,100.1,148.3,100.1z"/>
<line class="st1" x1="293.2" y1="238" x2="352.7" y2="238"/>
<path d="M313.4,232c-0.2,0.8-0.3,1.5-0.3,2.3c0.1,3.1,1.3,6.1,3.3,8.5c0.6,0.8,1.3,1.5,2,2.1c1.3,1.1,2.8,2,4.5,2.5
	c0.8,0.3,1.6,0.4,2.5,0.4c1,0,2-0.1,3-0.4c2.2-0.5,3.9-2.3,4.2-4.6c0.1-0.6,0.2-1.2,0.2-1.8c0-5.7-5.3-12.8-11.9-12.8
	C317.9,228.2,314.4,228.6,313.4,232z M323.4,226.1c8.9,0,19.7,5,19.7,11.8s-5,12.1-20.6,12.1c-14.3,0-19.7-5.7-19.7-12.1
	C302.7,231.4,310.7,226.1,323.4,226.1L323.4,226.1z"/>
<path d="M313.4,208.1c-0.2,0.8-0.3,1.5-0.3,2.3c0.1,3.1,1.3,6.1,3.3,8.5c0.6,0.8,1.3,1.5,2,2.1c1.3,1.1,2.8,2,4.5,2.5
	c0.8,0.3,1.6,0.4,2.5,0.4c1,0,2-0.1,3-0.4c2.2-0.5,3.9-2.3,4.2-4.6c0.1-0.6,0.2-1.2,0.2-1.8c0-5.7-5.3-12.8-11.9-12.8
	C317.9,204.3,314.4,204.7,313.4,208.1z M323.4,202.2c8.9,0,19.7,5,19.7,11.8s-5,12.1-20.6,12.1c-14.3,0-19.7-5.7-19.7-12.1
	C302.7,207.5,310.7,202.2,323.4,202.2L323.4,202.2z"/>
<path d="M313.4,184.2c-0.2,0.8-0.3,1.5-0.3,2.3c0.1,3.1,1.3,6.1,3.3,8.5c0.6,0.8,1.3,1.5,2,2.1c1.3,1.1,2.8,2,4.5,2.5
	c0.8,0.3,1.6,0.4,2.5,0.4c1,0,2-0.1,3-0.4c2.2-0.5,3.9-2.3,4.2-4.6c0.1-0.6,0.2-1.2,0.2-1.8c0-5.7-5.3-12.8-11.9-12.8
	C317.9,180.4,314.4,180.8,313.4,184.2z M323.4,178.3c8.9,0,19.7,5,19.7,11.8s-5,12.1-20.6,12.1c-14.3,0-19.7-5.7-19.7-12.1
	C302.7,183.6,310.7,178.3,323.4,178.3L323.4,178.3z"/>
<path d="M543.9,208.1c-0.2,0.8-0.3,1.5-0.3,2.3c0.3,4.1,2.3,7.9,5.4,10.6c1.3,1.1,2.8,2,4.5,2.5c0.8,0.3,1.6,0.4,2.5,0.4
	c1,0,2-0.1,3-0.4c2.2-0.5,3.9-2.3,4.2-4.6c0.1-0.6,0.2-1.2,0.2-1.8c0-5.7-5.3-12.8-11.9-12.8C548.5,204.3,545,204.7,543.9,208.1z
	 M553.9,202.2c8.9,0,19.7,5,19.7,11.8s-5,12.1-20.7,12.1c-14.2,0-19.7-5.7-19.7-12.1C533.3,207.5,541.3,202.2,553.9,202.2
	L553.9,202.2z"/>
<path d="M543.9,184.2c-0.2,0.8-0.3,1.5-0.3,2.3c0.3,4.1,2.2,7.9,5.4,10.6c1.3,1.1,2.8,2,4.5,2.5c0.8,0.3,1.6,0.4,2.5,0.4
	c1,0,2-0.1,3-0.4c2.2-0.5,3.9-2.3,4.2-4.6c0.1-0.6,0.2-1.2,0.2-1.8c0-5.7-5.3-12.8-11.9-12.8C548.5,180.4,545,180.8,543.9,184.2z
	 M553.9,178.3c8.9,0,19.7,5,19.7,11.8s-5,12.1-20.7,12.1c-14.2,0-19.7-5.7-19.7-12.1C533.3,183.6,541.3,178.3,553.9,178.3
	L553.9,178.3z"/>
<path d="M543.9,148.3c-0.2,0.8-0.3,1.5-0.3,2.3c0.1,3.1,1.3,6.1,3.3,8.5c0.6,0.8,1.3,1.5,2,2.1c1.3,1.1,2.8,2,4.5,2.5
	c0.8,0.3,1.6,0.4,2.5,0.4c1,0,2-0.1,3-0.4c2.2-0.5,3.9-2.3,4.2-4.6c0.1-0.6,0.2-1.2,0.2-1.8c0-5.7-5.3-12.8-11.9-12.8
	C548.5,144.5,545,145,543.9,148.3z M553.9,142.4c8.9,0,19.7,5,19.7,11.8c0,6.8-5,12.1-20.7,12.1c-14.2,0-19.7-5.7-19.7-12.1
	C533.3,147.8,541.3,142.4,553.9,142.4L553.9,142.4z"/>
<path d="M774.5,184.2c-0.2,0.8-0.3,1.5-0.3,2.3c0.1,3.1,1.3,6.1,3.3,8.5c0.6,0.8,1.3,1.5,2,2.1c1.3,1.1,2.8,2,4.5,2.5
	c0.8,0.3,1.6,0.4,2.5,0.4c1,0,2-0.1,3-0.4c2.2-0.5,3.9-2.3,4.2-4.6c0.1-0.6,0.2-1.2,0.2-1.8c0-5.7-5.3-12.8-11.8-12.8
	C779.1,180.4,775.5,180.8,774.5,184.2z M784.5,178.3c8.9,0,19.7,5,19.7,11.8s-5,12.1-20.7,12.1c-14.3,0-19.7-5.7-19.7-12.1
	C763.8,183.6,771.8,178.3,784.5,178.3L784.5,178.3z"/>
<path d="M774.5,124.4c-0.2,0.8-0.3,1.5-0.3,2.3c0.1,3.1,1.3,6.1,3.3,8.5c0.6,0.8,1.3,1.5,2,2.1c1.3,1.1,2.8,2,4.5,2.5
	c0.8,0.3,1.6,0.4,2.5,0.4c1,0,2-0.1,3-0.4c2.2-0.5,3.9-2.3,4.2-4.6c0.1-0.6,0.2-1.2,0.2-1.8c0-5.7-5.3-12.8-11.8-12.8
	C779.1,120.6,775.5,121.1,774.5,124.4z M784.5,118.5c8.9,0,19.7,5,19.7,11.8c0,6.8-5,12.1-20.7,12.1c-14.3,0-19.7-5.7-19.7-12.1
	C763.8,123.9,771.8,118.5,784.5,118.5L784.5,118.5z"/>
<path d="M774.5,148.3c-0.2,0.8-0.3,1.5-0.3,2.3c0.1,3.1,1.3,6.1,3.3,8.5c0.6,0.8,1.3,1.5,2,2.1c1.3,1.1,2.8,2,4.5,2.5
	c0.8,0.3,1.6,0.4,2.5,0.4c1,0,2-0.1,3-0.4c2.2-0.5,3.9-2.3,4.2-4.6c0.1-0.6,0.2-1.2,0.2-1.8c0-5.7-5.3-12.8-11.8-12.8
	C779.1,144.5,775.5,145,774.5,148.3z M784.5,142.4c8.9,0,19.7,5,19.7,11.8c0,6.8-5,12.1-20.7,12.1c-14.3,0-19.7-5.7-19.7-12.1
	C763.8,147.8,771.8,142.4,784.5,142.4L784.5,142.4z"/>
<line class="st0" x1="57.6" y1="469.5" x2="966.4" y2="469.5"/>
<line class="st0" x1="57.6" y1="493.4" x2="966.4" y2="493.4"/>
<line class="st0" x1="57.6" y1="517.3" x2="966.4" y2="517.3"/>
<line class="st0" x1="57.6" y1="541.2" x2="966.4" y2="541.2"/>
<line class="st0" x1="57.6" y1="565.1" x2="966.4" y2="565.1"/>
<path d="M139.3,501.5l2.4,13.9c0.3,1.7,0.3,1.7,2.8,1.7c14.1,0,23,10.8,23,23c0,10.8-6.4,18.9-16.1,22.8c-1.3,0.6-1.4,0.5-1.2,1.6
	c1.1,5.9,2.8,15,2.8,20.5c0,16.3-12.4,19.1-18.8,19.1c-14.4,0-18.2-9.4-18.2-15.6c0-5.9,3.8-11,10.2-11c5.8,0,9.2,4.5,9.2,9.8
	c0,5.5-3.4,8.1-6.4,9c-2.2,0.7-3.1,1-3.1,1.6c0,1.2,2.5,2.8,7.6,2.8c5.6,0,15.2-1.7,15.2-15.9c0-4.5-1.4-12.8-2.6-19.2
	c-0.2-1.1-0.4-1-1.4-0.9c-2.2,0.4-4.4,0.6-6.6,0.6c-23.4,0-34.8-15.8-34.8-32.4c0-10.2,4.1-19.1,10.7-27.3c5-6.1,11.6-12,17.7-17
	c1.1-1,1-1.1,0.9-2.3c-0.8-5.2-1.3-10.4-1.3-15.7c0-10,2.3-21.9,9.4-29.7c1.9-2.1,4.9-4.6,6.2-4.6c1.1,0,3.5,2.7,5,4.8
	c3.9,5.7,6.2,14,6.2,22.3c0,10.8-4.8,22.2-12.8,31c-1.8,2-3.8,4-5.4,5.4C139.3,500.3,139.1,500.4,139.3,501.5z M137.8,516.2l-2-12.2
	c-0.2-1-0.4-1.1-1.3-0.4c-5.3,4.1-10.2,8.6-14.6,13.6c-7.9,9-8.9,16.5-8.9,22.2c0,13.3,10.8,22.6,27.5,22.6c1.8,0,3.6-0.2,5.4-0.5
	c1.4-0.3,1.5-0.3,1.3-1.3l-4.8-28.5c-0.2-1-0.4-1.2-1.9-0.8c-5.8,1.6-9.6,5.7-9.6,11.2c0.1,4.5,2.8,8.5,6.9,10.2
	c0.7,0.3,1.4,0.6,1.4,1.2c0,0.6-0.4,1-1,1c-0.1,0-0.1,0-0.1,0c-0.9-0.1-1.8-0.3-2.6-0.6c-6.5-2.2-11-8.3-11-16.9
	c0-8.1,5.4-15.7,13.9-18.5C138.1,517.9,138.1,518,137.8,516.2L137.8,516.2z M144.4,531.4l4.7,27.2c0.2,1.2,0.4,1.2,1.5,0.6
	c5.4-2.7,9-7.5,9-13.6c0.1-8.1-6.1-14.9-14.1-15.6C144.3,529.9,144.3,530.2,144.4,531.4L144.4,531.4z M148.3,451.1
	c-5.8,0-12.7,9.2-12.7,24.1c0,2.9,0.2,5.9,0.6,8.8c0.2,1.2,0.6,1.3,1.2,0.8c2.2-1.9,4.5-4.1,6-5.6c7.5-7.5,10.6-13.6,10.6-20.2
	C154,453.6,151.4,451.1,148.3,451.1z"/>
<line class="st1" x1="293.2" y1="589" x2="352.7" y2="589"/>
<path d="M313.4,583c-0.2,0.8-0.3,1.5-0.3,2.3c0.1,3.1,1.3,6.1,3.3,8.5c0.6,0.8,1.3,1.5,2,2.1c1.3,1.1,2.8,2,4.5,2.5
	c0.8,0.3,1.6,0.4,2.5,0.4c1,0,2-0.1,3-0.4c2.2-0.5,3.9-2.3,4.2-4.6c0.1-0.6,0.2-1.2,0.2-1.8c0-5.7-5.3-12.8-11.9-12.8
	C317.9,579.2,314.4,579.6,313.4,583z M323.4,577.1c8.9,0,19.7,5,19.7,11.8s-5,12.2-20.6,12.2c-14.3,0-19.7-5.7-19.7-12.2
	S310.7,577.1,323.4,577.1L323.4,577.1z"/>
<path d="M313.4,559.1c-0.2,0.8-0.3,1.5-0.3,2.3c0.1,3.1,1.3,6.1,3.3,8.5c0.6,0.8,1.3,1.5,2,2.1c1.3,1.1,2.8,2,4.5,2.5
	c0.8,0.3,1.6,0.4,2.5,0.4c1,0,2-0.1,3-0.4c2.2-0.5,3.9-2.3,4.2-4.6c0.1-0.6,0.2-1.2,0.2-1.8c0-5.7-5.3-12.8-11.9-12.8
	C317.9,555.3,314.4,555.7,313.4,559.1z M323.4,553.2c8.9,0,19.7,5,19.7,11.8s-5,12.2-20.6,12.2c-14.3,0-19.7-5.7-19.7-12.2
	S310.7,553.2,323.4,553.2L323.4,553.2z"/>
<path d="M313.4,535.2c-0.2,0.8-0.3,1.5-0.3,2.3c0.1,3.1,1.3,6.1,3.3,8.5c0.6,0.8,1.3,1.5,2,2.1c1.3,1.1,2.8,2,4.5,2.5
	c0.8,0.3,1.6,0.4,2.5,0.4c1,0,2-0.1,3-0.4c2.2-0.5,3.9-2.3,4.2-4.6c0.1-0.6,0.2-1.2,0.2-1.8c0-5.7-5.3-12.8-11.9-12.8
	C317.9,531.4,314.4,531.8,313.4,535.2z M323.4,529.3c8.9,0,19.7,5,19.7,11.8s-5,12.2-20.6,12.2c-14.3,0-19.7-5.7-19.7-12.2
	S310.7,529.3,323.4,529.3L323.4,529.3z"/>
<path d="M543.9,559.1c-0.2,0.8-0.3,1.5-0.3,2.3c0.3,4.1,2.3,7.9,5.4,10.6c1.3,1.1,2.8,2,4.5,2.5c0.8,0.3,1.6,0.4,2.5,0.4
	c1,0,2-0.1,3-0.4c2.2-0.5,3.9-2.3,4.2-4.6c0.1-0.6,0.2-1.2,0.2-1.8c0-5.7-5.3-12.8-11.9-12.8C548.5,555.3,545,555.7,543.9,559.1z
	 M553.9,553.2c8.9,0,19.7,5,19.7,11.8s-5,12.2-20.7,12.2c-14.2,0-19.7-5.7-19.7-12.2S541.3,553.2,553.9,553.2L553.9,553.2z"/>
<path d="M543.9,535.2c-0.2,0.8-0.3,1.5-0.3,2.3c0.3,4.1,2.2,7.9,5.4,10.6c1.3,1.1,2.8,2,4.5,2.5c0.8,0.3,1.6,0.4,2.5,0.4
	c1,0,2-0.1,3-0.4c2.2-0.5,3.9-2.3,4.2-4.6c0.1-0.6,0.2-1.2,0.2-1.8c0-5.7-5.3-12.8-11.9-12.8C548.5,531.4,545,531.8,543.9,535.2z
	 M553.9,529.3c8.9,0,19.7,5,19.7,11.8s-5,12.2-20.7,12.2c-14.2,0-19.7-5.7-19.7-12.2S541.3,529.3,553.9,529.3L553.9,529.3z"/>
<path d="M543.9,499.3c-0.2,0.8-0.3,1.5-0.3,2.3c0.1,3.1,1.3,6.1,3.3,8.5c0.6,0.8,1.3,1.5,2,2.1c1.3,1.1,2.8,2,4.5,2.5
	c0.8,0.3,1.6,0.4,2.5,0.4c1,0,2-0.1,3-0.4c2.2-0.5,3.9-2.3,4.2-4.6c0.1-0.6,0.2-1.2,0.2-1.8c0-5.7-5.3-12.8-11.9-12.8
	C548.5,495.5,545,496,543.9,499.3z M553.9,493.4c8.9,0,19.7,5,19.7,11.8s-5,12.1-20.7,12.1c-14.2,0-19.7-5.7-19.7-12.1
	S541.3,493.4,553.9,493.4L553.9,493.4z"/>
<path d="M774.5,535.2c-0.2,0.8-0.3,1.5-0.3,2.3c0.1,3.1,1.3,6.1,3.3,8.5c0.6,0.8,1.3,1.5,2,2.1c1.3,1.1,2.8,2,4.5,2.5
	c0.8,0.3,1.6,0.4,2.5,0.4c1,0,2-0.1,3-0.4c2.2-0.5,3.9-2.3,4.2-4.6c0.1-0.6,0.2-1.2,0.2-1.8c0-5.7-5.3-12.8-11.8-12.8
	C779.1,531.4,775.5,531.8,774.5,535.2z M784.5,529.3c8.9,0,19.7,5,19.7,11.8s-5,12.2-20.7,12.2c-14.3,0-19.7-5.7-19.7-12.2
	S771.8,529.3,784.5,529.3L784.5,529.3z"/>
<path d="M774.5,475.4c-0.2,0.8-0.3,1.5-0.3,2.3c0.1,3.1,1.3,6.1,3.3,8.5c0.6,0.8,1.3,1.5,2,2.1c1.3,1.1,2.8,2,4.5,2.5
	c0.8,0.3,1.6,0.4,2.5,0.4c1,0,2-0.1,3-0.4c2.2-0.5,3.9-2.3,4.2-4.6c0.1-0.6,0.2-1.2,0.2-1.8c0-5.7-5.3-12.8-11.8-12.8
	C779.1,471.6,775.5,472.1,774.5,475.4z M784.5,469.5c8.9,0,19.7,5,19.7,11.8s-5,12.1-20.7,12.1c-14.3,0-19.7-5.7-19.7-12.1
	S771.8,469.5,784.5,469.5L784.5,469.5z"/>
<path d="M774.5,499.3c-0.2,0.8-0.3,1.5-0.3,2.3c0.1,3.1,1.3,6.1,3.3,8.5c0.6,0.8,1.3,1.5,2,2.1c1.3,1.1,2.8,2,4.5,2.5
	c0.8,0.3,1.6,0.4,2.5,0.4c1,0,2-0.1,3-0.4c2.2-0.5,3.9-2.3,4.2-4.6c0.1-0.6,0.2-1.2,0.2-1.8c0-5.7-5.3-12.8-11.8-12.8
	C779.1,495.5,775.5,496,774.5,499.3z M784.5,493.4c8.9,0,19.7,5,19.7,11.8s-5,12.1-20.7,12.1c-14.3,0-19.7-5.7-19.7-12.1
	S771.8,493.4,784.5,493.4L784.5,493.4z"/>
<path d="M322.7,332.4c-2.1,0-7.1,0-8.9,0.1v-2.1h5.6v-30h-5.6v-2.2c1.8,0.1,6.8,0.1,8.9,0.1c2.1,0,7.1,0,8.9-0.1v2.1H326v30h5.6v2.1
	C329.8,332.4,324.8,332.4,322.7,332.4z"/>
<path d="M544.7,332.4c-2.1,0-7.1,0-8.9,0.1v-2.1h5.6v-30h-5.6v-2.1c1.8,0.1,6.8,0.1,8.9,0.1s7.1,0,8.9-0.1v2.1H548v30h5.6v2.1
	C551.8,332.4,546.8,332.4,544.7,332.4z"/>
<path d="M564.5,313.2c-6.9,0-6.9-7.6-6.9-9.6c0-7.6,4.9-9.9,8.6-9.9c3.1,0,4.2,1.8,4.2,3.5c0,0.9-0.7,1.7-1.7,1.8s-1.7-0.7-1.8-1.7
	l0,0c0-0.9,0.7-1.7,1.6-1.7c-0.6-0.6-1.5-0.9-2.3-0.8c-1.7,0-3.2,0.9-4,2.4c-0.7,1.6-1,3.4-0.9,5.2v0.8c0.5-1.5,2-2.5,3.6-2.5
	c3.5,0,6.3,2.2,6.3,6.2S568.4,313.2,564.5,313.2z M564.6,301.6c-1.7,0-3.3,1.5-3.3,5.1c0,1.2,0.1,2.4,0.4,3.5
	c0.5,1.1,1.5,1.8,2.7,1.8c3,0,3-2.3,3-5.2S567.5,301.6,564.6,301.6z"/>
<path d="M774.7,332.4c-2.1,0-7.1,0-8.9,0.1v-2.1h5.6v-30h-5.6v-2.1c1.8,0.1,6.8,0.1,8.9,0.1s7.1,0,8.9-0.1v2.1H778v30h5.6v2.1
	C781.8,332.4,776.8,332.4,774.7,332.4z"/>
<path d="M794.5,313.2c-6.9,0-6.9-7.6-6.9-9.6c0-7.6,4.9-9.9,8.6-9.9c3.1,0,4.2,1.8,4.2,3.5c0,0.9-0.7,1.7-1.7,1.8s-1.7-0.7-1.8-1.7
	l0,0c0-0.9,0.7-1.7,1.6-1.7c-0.6-0.6-1.5-0.9-2.3-0.8c-1.7,0-3.2,0.9-4,2.4c-0.7,1.6-1,3.4-0.9,5.2v0.8c0.5-1.5,2-2.5,3.6-2.5
	c3.5,0,6.3,2.2,6.3,6.2S798.4,313.2,794.5,313.2z M794.6,301.6c-1.7,0-3.3,1.5-3.3,5.1c0,1.2,0.1,2.4,0.4,3.5
	c0.5,1.1,1.5,1.8,2.7,1.8c3,0,3-2.3,3-5.2S797.5,301.6,794.6,301.6z"/>
<path d="M797,336.1c-1,0-3.9,0-4.8,0.1v-1.3h3.2v-3.3h-8.3v-1.3l10-12.9c0.3-0.4,0.4-0.4,0.9-0.4c0.7,0,0.8,0.1,0.8,0.8v12.5h2.8
	v1.3h-2.8v3.3h2.8v1.3C800.9,336.1,798,336.1,797,336.1z M795.7,321.1l-7.2,9.3h7.2V321.1z"/>
<path d="M771.3,682.4c-2.1,0-7.1,0-8.9,0.1v-2.2h5.6v-30h-5.6v-2.2c1.8,0.1,6.8,0.1,8.9,0.1s7.1,0,8.9-0.1v2.2h-5.6v30h5.6v2.2
	C778.3,682.4,773.3,682.4,771.3,682.4z"/>
<path d="M795.7,682.8c-7.3,0-12.1-4.6-12.1-11.4c0-5.8,3.5-11.5,12.4-11.5c2.7,0,8.5,0.3,8.5,4.4c0.3,1.6-0.8,3.2-2.4,3.5
	c-1.6,0.3-3.2-0.8-3.5-2.4c-0.1-0.4-0.1-0.7,0-1.1c0-0.8,0.3-1.6,0.8-2.2c0.1,0,0.1-0.1,0.2-0.2c0-0.3-3-0.3-3.3-0.3
	c-6.5,0-6.6,6.5-6.6,9.5c0,2.3,0,9.8,7,9.8c2.8,0.2,5.4-1.6,6.3-4.3c0.3-0.6,0.3-0.7,1.1-0.7c0.5,0,1,0,1,0.6
	C805.1,677,803.6,682.8,795.7,682.8z"/>
<path d="M538.1,682.4c-2.1,0-7.1,0-8.9,0.1v-2.2h5.6v-30h-5.6v-2.2c1.8,0.1,6.8,0.1,8.9,0.1s7.1,0,8.9-0.1v2.2h-5.6v30h5.6v2.2
	C545.2,682.4,540.2,682.4,538.1,682.4z"/>
<path d="M565.7,682.8c-2.8,0-5.4-1.1-7.3-3.2c-0.8,1-1.7,2-2.5,2.9h-2.1v-30.2c0-2-0.3-2-3.5-2v-2.2l8.7-0.4v14.8
	c2.1-1.7,4.7-2.6,7.3-2.5c6.8,0,11.5,4.5,11.5,11.3C577.9,678.6,572.6,682.8,565.7,682.8z M565.7,661.6c-2.6,0-4.9,1.2-6.5,3.3v12.7
	c1.2,2.1,3.5,3.5,6,3.5c2.2,0.1,4.3-1,5.5-2.9c1.2-1.8,1.2-4.7,1.2-7C571.9,668,571.9,661.6,565.7,661.6z"/>
</svg>
